<?xml version="1.0" encoding="UTF-8" standalone="no"?>
<svg
   xmlns:dc="http://purl.org/dc/elements/1.1/"
   xmlns:cc="http://creativecommons.org/ns#"
   xmlns:rdf="http://www.w3.org/1999/02/22-rdf-syntax-ns#"
   xmlns:svg="http://www.w3.org/2000/svg"
   xmlns="http://www.w3.org/2000/svg"
   xmlns:sodipodi="http://sodipodi.sourceforge.net/DTD/sodipodi-0.dtd"
   xmlns:inkscape="http://www.inkscape.org/namespaces/inkscape"
   width="913.5"
   height="1039.325"
   viewBox="0 0 913.5 1039.325"
   version="1.1"
   id="svg6130"
   sodipodi:docname="untitled.svg"
   inkscape:version="0.92.3 (2405546, 2018-03-11)">
  <metadata
     id="metadata6136">
    <rdf:RDF>
      <cc:Work
         rdf:about="">
        <dc:format>image/svg+xml</dc:format>
        <dc:type
           rdf:resource="http://purl.org/dc/dcmitype/StillImage" />
        <dc:title></dc:title>
      </cc:Work>
    </rdf:RDF>
  </metadata>
  <defs
     id="defs6134" />
  <sodipodi:namedview
     pagecolor="#ffffff"
     bordercolor="#666666"
     borderopacity="1"
     objecttolerance="10000"
     gridtolerance="10000"
     guidetolerance="10000"
     inkscape:pageopacity="0"
     inkscape:pageshadow="2"
     inkscape:window-width="1366"
     inkscape:window-height="705"
     id="namedview6132"
     showgrid="false"
     fit-margin-top="0"
     fit-margin-left="0"
     fit-margin-right="0"
     fit-margin-bottom="0"
     inkscape:zoom="0.472"
     inkscape:cx="682.73051"
     inkscape:cy="650.59929"
     inkscape:window-x="-8"
     inkscape:window-y="-8"
     inkscape:window-maximized="1"
     inkscape:current-layer="svg6130" />
  <path
     d="m 431.6,6.675 -406.4,234.7 c -15.6,9 -25.2,25.6 -25.2,43.6 v 469.3 c 0,18 9.6,34.6 25.2,43.6 l 406.4,234.7 c 15.6,9 34.7,9 50.3,0 l 406.39998,-234.7 c 15.6,-9 25.2,-25.6 25.2,-43.6 v -469.3 c 0,-18 -9.6,-34.6 -25.2,-43.6 L 481.9,6.675 c -15.5,-8.9 -34.7,-8.9 -50.3,0 z"
     id="path6128"
     inkscape:connector-curvature="0" />
  <path
     d="m 723.45399,364.61152 q 0,10.112 -1.685,20.224 l -5.899,33.707 h -463.467 l 26.965,-151.68 h 345.493 q 42.976,0 70.784,27.808 27.808,27.808 27.808,69.941 z m -15.168,96.064 q -4.213,26.123 -42.976,58.987 22.752,28.65099 22.752,50.55999 0,4.213 0,8.427 l -34.549,193.813 h -151.68 l 34.549,-193.813 h -160.107 l -34.549,193.813 h -151.68 l 54.773,-311.787 z"
     id="path6148"
     inkscape:connector-curvature="0"
     style="fill:#ffffff" />
</svg>
