<?xml version="1.0" encoding="UTF-8" standalone="no"?>
<!-- Created with Inkscape (http://www.inkscape.org/) -->

<svg
   xmlns:dc="http://purl.org/dc/elements/1.1/"
   xmlns:cc="http://creativecommons.org/ns#"
   xmlns:rdf="http://www.w3.org/1999/02/22-rdf-syntax-ns#"
   xmlns:svg="http://www.w3.org/2000/svg"
   xmlns="http://www.w3.org/2000/svg"
   xmlns:sodipodi="http://sodipodi.sourceforge.net/DTD/sodipodi-0.dtd"
   xmlns:inkscape="http://www.inkscape.org/namespaces/inkscape"
   width="376.48981"
   height="460.15421"
   viewBox="0 0 99.612931 121.74914"
   version="1.1"
   id="svg6563"
   inkscape:version="0.92.3 (2405546, 2018-03-11)"
   sodipodi:docname="ic_quadra.svg">
  <defs
     id="defs6557" />
  <sodipodi:namedview
     id="base"
     pagecolor="#ffffff"
     bordercolor="#666666"
     borderopacity="1.0"
     inkscape:pageopacity="0.0"
     inkscape:pageshadow="2"
     inkscape:zoom="0.35355339"
     inkscape:cx="118.52846"
     inkscape:cy="371.45402"
     inkscape:document-units="mm"
     inkscape:current-layer="layer1"
     showgrid="false"
     inkscape:window-width="1366"
     inkscape:window-height="705"
     inkscape:window-x="-8"
     inkscape:window-y="-8"
     inkscape:window-maximized="1"
     fit-margin-top="0"
     fit-margin-left="0"
     fit-margin-right="0"
     fit-margin-bottom="0" />
  <metadata
     id="metadata6560">
    <rdf:RDF>
      <cc:Work
         rdf:about="">
        <dc:format>image/svg+xml</dc:format>
        <dc:type
           rdf:resource="http://purl.org/dc/dcmitype/StillImage" />
        <dc:title></dc:title>
      </cc:Work>
    </rdf:RDF>
  </metadata>
  <g
     inkscape:label="Camada 1"
     inkscape:groupmode="layer"
     id="layer1"
     transform="translate(-17.926867,-168.39208)">
    <g
       transform="matrix(5.5340517,0,0,5.5340517,1.2630463,161.48964)"
       id="g4116">
      <path
         style="fill:#000000;stroke-width:0.35293248"
         sodipodi:nodetypes="ssssssssss"
         inkscape:connector-curvature="0"
         id="path7-3"
         d="m 12.011143,9.0708747 c -1.754074,0 -3.1763925,1.4223183 -3.1763925,3.1763923 0,1.754074 1.4187885,3.176392 3.1763925,3.176392 1.754074,0 3.176392,-1.422318 3.176392,-3.176392 0,-1.754074 -1.422318,-3.1763923 -3.176392,-3.1763923 z m 0,5.6469203 c -1.365849,0 -2.4705276,-1.104679 -2.4705276,-2.470528 0,-1.365849 1.1046786,-2.4705273 2.4705276,-2.4705273 1.365849,0 2.470528,1.1046783 2.470528,2.4705273 0,1.365849 -1.104679,2.470528 -2.470528,2.470528 z" />
      <g
         transform="rotate(-90,12.129205,12.118062)"
         id="Outline">
        <g
           id="ui_x5F_spec_x5F_header" />
        <g
           id="g11">
          <path
             inkscape:connector-curvature="0"
             id="path7"
             d="M 21,5 V 19 H 3 V 5 H 21 M 21,3 H 3 C 1.9,3 1,3.9 1,5 v 14 c 0,1.1 0.9,2 2,2 h 18 c 1.1,0 2,-0.9 2,-2 V 5 C 23,3.9 22.1,3 21,3 Z" />
        </g>
      </g>
      <rect
         style="fill:#000000;stroke-width:0.61582851"
         id="rect6"
         height="0.70586497"
         width="15.043746"
         y="11.894335"
         x="4.4892693" />
      <g
         style="fill:#000000"
         transform="matrix(0,-0.35293248,0.35293248,0,7.7759532,6.482457)"
         id="Outline-0-6">
        <g
           style="fill:#000000"
           id="ui_x5F_spec_x5F_header-1-5" />
        <g
           style="fill:#000000"
           id="g11-3-7">
          <path
             sodipodi:nodetypes="ccccsssssssss"
             style="fill:#000000"
             inkscape:connector-curvature="0"
             id="path7-6-7"
             d="M 10.109107,5 V 19 H 3 V 5 M 11.260177,3 H 3 C 1.9,3 1,3.9 1,5 v 14 c 0,1.1 0.9,2 2,2 h 7.906001 c 1.1,0 1.223973,-0.900198 1.203106,-2 L 11.843475,5 C 11.822608,3.900198 12.360177,3 11.260177,3 Z" />
        </g>
      </g>
      <path
         sodipodi:nodetypes="ccccsssssssss"
         style="fill:#000000;stroke-width:0.35293248"
         inkscape:connector-curvature="0"
         id="path7-6-7-0"
         d="M 14.48167,21.57991 H 9.5406155 V 19.070875 H 14.48167 m 0.705865,2.915285 v -2.915285 c 0,-0.388225 -0.317639,-0.705865 -0.705865,-0.705865 H 9.5406155 c -0.388226,0 -0.705865,0.31764 -0.705865,0.705865 v 2.790285 c 0,0.388226 0.317709,0.43198 0.705865,0.424615 l 4.9410545,-0.09375 c 0.388156,-0.0074 0.705865,0.182361 0.705865,-0.205865 z" />
    </g>
  </g>
</svg>
